<svg width="512" height="512" viewBox="0 0 512 512" fill="none" xmlns="http://www.w3.org/2000/svg">
  <rect width="512" height="512" rx="48" fill="white"/>
  <rect x="80" y="112" width="352" height="96" rx="10" fill="#FF9933"/>
  <rect x="80" y="208" width="352" height="96" fill="white"/>
  <rect x="80" y="304" width="352" height="96" rx="10" fill="#138808"/>
  <path d="M80 198h352M80 314h352" stroke="#E5E7EB" stroke-width="8"/>
  <circle cx="256" cy="256" r="39" fill="white" stroke="#0B3D91" stroke-width="8"/>
  <circle cx="256" cy="256" r="5" fill="#0B3D91"/>
  <g stroke="#0B3D91" stroke-width="3" stroke-linecap="round">
    <path d="M256 217v78"/>
    <path d="M217 256h78"/>
    <path d="M228 228l56 56"/>
    <path d="M284 228l-56 56"/>
    <path d="M241 220l30 72"/>
    <path d="M271 220l-30 72"/>
    <path d="M220 241l72 30"/>
    <path d="M292 241l-72 30"/>
    <path d="M248 218l16 76"/>
    <path d="M264 218l-16 76"/>
    <path d="M218 248l76 16"/>
    <path d="M294 248l-76 16"/>
  </g>
</svg>
